 <svg style="width: 100%; height:800px; margin:auto;" xmlns="http://www.w3.org/2000/svg">
        <ellipse cx="250" cy="270" rx="65" ry="20" fill="lightgrey"></ellipse>
        <circle r="100" cx="250" cy="170" fill="orange"></circle>
        <circle r="40" cx="235" cy="145" fill="white"></circle>
        <circle r="40" cx="280" cy="145" fill="white"></circle>
        <circle r="8" cx="245" cy="145" fill="black"></circle>
        <circle r="8" cx="290" cy="145" fill="black"></circle>
        <circle r="15" cx="265" cy="185" fill="black"></circle>
        <ellipse cx="250" cy="230" rx="20" ry="10" fill="red"></ellipse>
        <path xmlns="http://www.w3.org/2000/svg" transform="rotate(-71.1526 400         300)" id="svg_1" d="m430.00001,35.70543c-12.9749,0 -23.48457,-25.82383         -23.48457,-57.7051c0,-31.88127 10.50967,-57.7051                               23.48457,-57.7051c12.9749,0 23.48457,25.82383                    23.48457,57.7051c0,31.88127-10.50967,57.7051 -23.48457,57.7051z" opacity="undefined" stroke="orange" fill="orange"/>
        <polygon points=" 51 150,80 180, 90 140" stroke="white" fill="white"/>
        <polygon points=" 170 75,170 110, 210 80" stroke="orange" fill="orange"/>
        <polygon points=" 175 80,175 110, 210 85" stroke="black" fill="black"/>
        <polygon points=" 290 50,255 80, 305 92" stroke="orange" fill="orange"/>
        <polygon points=" 288 58,268 75, 297 85" stroke="black" fill="black"/>
        <ellipse cx="540" cy="270" rx="65" ry="20" fill="lightgrey"></ellipse>
        <circle r="100" cx="540" cy="170" fill="rgb(240, 248, 10)"></circle>
        <circle r="40" cx="500" cy="145" fill="white"></circle>
        <circle r="40" cx="545" cy="145" fill="white"></circle>
        <circle r="8" cx="500" cy="145" fill="black"></circle>
        <circle r="8" cx="545" cy="145" fill="black"></circle>
        <ellipse cx="525" cy="225" rx="10" ry="20" fill="red"></ellipse>
    </svg>